<svg xmlns="http://www.w3.org/2000/svg" width="38" height="38" viewBox="0 0 38 38">
    <path fill="#ff3819" fill-rule="evenodd" d="M7.75 7h16.5c.415 0 .75.336.75.75v17.244h3c1.654 0 3 1.347 3 3.003v2.252c0 .415-.335.751-.75.751h-13.5c-.415 0-.75-.336-.75-.75v-2.253c0-.828-.673-1.501-1.5-1.501s-1.5.673-1.5 1.501C13 29.653 11.655 31 10 31s-3-1.347-3-3.003V7.751C7 7.336 7.335 7 7.75 7zm9.75 20.997V29.5h12v-1.502c0-.828-.673-1.501-1.5-1.501H17.097c.257.442.403.955.403 1.501zm-6-6.006h9V20.49h-9v1.501zm0-4.504h9v-1.502h-9v1.502zm0-4.504h9V11.48h-9v1.502z"/>
</svg>
