<svg xmlns="http://www.w3.org/2000/svg" width="25" height="16" viewBox="0 0 25 16">
    <g>
        <path d="M24.841 7.512C24.618 7.205 19.296 0 12.5 0 5.703 0 .382 7.205.159 7.511c-.212.291-.212.686 0 .977C.382 8.795 5.703 16 12.499 16c6.797 0 12.119-7.205 12.342-7.511.212-.291.212-.687 0-.977zM12.5 14.345c-5.006 0-9.342-4.782-10.626-6.346C3.156 6.435 7.483 1.655 12.5 1.655c5.006 0 9.342 4.781 10.626 6.346-1.282 1.564-5.61 6.344-10.626 6.344z"/>
        <path d="M12 3C9.243 3 7 5.243 7 8s2.243 5 5 5 5-2.243 5-5-2.243-5-5-5zm0 8.333c-1.838 0-3.333-1.495-3.333-3.333S10.162 4.667 12 4.667 15.333 6.162 15.333 8 13.838 11.333 12 11.333z"/>
    </g>
</svg>
