<svg xmlns="http://www.w3.org/2000/svg" width="24" height="24" viewBox="0 0 24 24">
    <g fill="none" fill-rule="evenodd">
        <path d="M0 0H24V24H0z"/>
        <path fill="#1D1D1D" d="M21.09 6v12c0 .55.43 1 .955 1 .525 0 .955-.45.955-1V6c0-.55-.43-1-.955-1-.525 0-.954.45-.954 1zm-2.863 13c.525 0 .955-.45.955-1V6c0-.55-.43-1-.955-1-.525 0-.954.45-.954 1v12c0 .55.43 1 .954 1zM14.41 5H2.955C2.43 5 2 5.45 2 6v12c0 .55.43 1 .955 1h11.454c.525 0 .955-.45.955-1V6c0-.55-.43-1-.955-1zM8.682 7.75c1.183 0 2.148 1.01 2.148 2.25s-.965 2.25-2.148 2.25c-1.184 0-2.148-1.01-2.148-2.25s.964-2.25 2.148-2.25zM12.977 17h-8.59v-.75c0-1.5 2.863-2.25 4.295-2.25s4.295.75 4.295 2.25V17z"/>
    </g>
</svg>
